# xmcd
#
# Track frame offsets:
#	182
#	15467
#	29487
#	40852
#	58707
#	70305
#	81667
#	101970
#	112265
#	122732
#	135250
#	149207
#
# Disc length: 2156 seconds
#
# Revision: 2
# Processed by: cddbd v1.5.2PL0 Copyright (c) Steve Scherf et al.
# Submitted via: EZCDAudioConverter 1.5.4.1
#
DISCID=b8086a0c
DTITLE=Sandy and Junior - Sábado à Noite
DYEAR=1992
DGENRE=Country/Pop
TTITLE0=Sábado à Noite
TTITLE1=A Resposta da Mariquinha
TTITLE2=O Vira
TTITLE3=Guardiã dos Animais
TTITLE4=O Sítio da Vovó
TTITLE5=O Sabe Tudo
TTITLE6=Vamos Construir
TTITLE7=Como Nós Somos Unidos
TTITLE8=Infância Careta
TTITLE9=Pó Pra Tapar Taio
TTITLE10=Medo de Crescer
TTITLE11=Criança, Vida e Luz (Papai do Céu)
EXTD=
EXTT0=
EXTT1=
EXTT2=
EXTT3=
EXTT4=
EXTT5=
EXTT6=
EXTT7=
EXTT8=
EXTT9=
EXTT10=
EXTT11=
PLAYORDER=
